# AST/ASF file generated using VICON BodyLanguage
# -----------------------------------------------
:version 1.10
:name VICON
:units
  mass 1.0
  length 0.45
  angle deg
:documentation
   .ast/.asf automatically generated from VICON data using
   VICON BodyBuilder and BodyLanguage model FoxedUp or BRILLIANT.MOD
:root
   order TX TY TZ RX RY RZ
   axis XYZ
   position 0 0 0  
   orientation 0 0 0 
:bonedata
  begin
     id 1 
     name lhipjoint
     direction 0.62366 -0.717238 0.310833 
     length 2.53602 
     axis 0 0 0  XYZ
  end
  begin
     id 2 
     name lfemur
     direction 0.34202 -0.939693 0  
     length 7.40817  
     axis 0 0 20  XYZ
    dof rx ry rz
    limits (-160.0 20.0)
           (-70.0 70.0)
           (-60.0 70.0)
  end
  begin
     id 3 
     name ltibia
     direction 0.34202 -0.939693 0   
     length 7.7045   
     axis 0 0 20   XYZ
    dof rx
    limits (-10.0 170.0)
  end
  begin
     id 4 
     name lfoot
     direction 0.0673888 -0.185149 0.980397   
     length 2.09456   
     axis -90 7.62852e-016 20   XYZ
    dof rx rz
    limits (-45.0 90.0)
           (-70.0 20.0)
  end
  begin
     id 5 
     name ltoes
     direction 1.53575e-011 -4.21994e-011 1   
     length 1.05543   
     axis -90 7.62852e-016 20   XYZ
    dof rx
    limits (-90.0 20.0)
  end
  begin
     id 6 
     name rhipjoint
     direction -0.489018 -0.800347 0.346851   
     length 2.27268  
     axis 0 0 0  XYZ 
  end
  begin
     id 7 
     name rfemur
     direction -0.34202 -0.939693 0   
     length 7.55487   
     axis 0 0 -20   XYZ
    dof rx ry rz
    limits (-160.0 20.0)
           (-70.0 70.0)
           (-70.0 60.0)
  end
  begin
     id 8 
     name rtibia
     direction -0.34202 -0.939693 0   
     length 7.78969   
     axis 0 0 -20   XYZ
    dof rx
    limits (-10.0 170.0)
 end
 begin
     id 9 
     name rfoot
     direction -0.0859318 -0.236096 0.967923   
     length 2.19143  
     axis -90 -7.62852e-016 -20   XYZ
    dof rx rz
    limits (-45.0 90.0)
           (-20.0 70.0)
  end
  begin
     id 10 
     name rtoes
     direction -1.53538e-011 -4.21989e-011 1   
     length 1.09845   
     axis -90 -7.62852e-016 -20   XYZ
    dof rx
    limits (-90.0 20.0)
  end
  begin
     id 11 
     name lowerback
     direction -0.00762546 0.998978 -0.0445553   
     length 1.98161   
     axis 0 0 0   XYZ
    dof rx ry rz
    limits (-20.0 45.0)
           (-30.0 30.0)
           (-30.0 30.0)
  end
  begin
     id 12 
     name upperback
     direction 0.0422361 0.998867 -0.0219156   
     length 1.97558   
     axis 0 0 0   XYZ
    dof rx ry rz
    limits (-20.0 45.0)
           (-30.0 30.0)
           (-30.0 30.0)
  end
  begin
     id 13 
     name thorax
     direction 0.0442465 0.999021 7.47603e-005   
     length 1.97799   
     axis 0 0 0   XYZ
    dof rx ry rz
    limits (-20.0 45.0)
           (-30.0 30.0)
           (-30.0 30.0)
  end
  begin
     id 14 
     name lowerneck
     direction 0.00312169 0.984641 0.174564   
     length 1.78995   
     axis 0 0 0   XYZ
    dof rx ry rz
    limits (-20.0 45.0)
           (-30.0 30.0)
           (-30.0 30.0)
  end
  begin
     id 15 
     name upperneck
     direction -0.0383028 0.985255 -0.166749   
     length 1.83053   
     axis 0 0 0   XYZ
    dof rx ry rz
    limits (-20.0 45.0)
           (-30.0 30.0)
           (-30.0 30.0)
  end
  begin
     id 16
     name head
     direction -0.0129546 0.997059 -0.0755386  
     length 1.84088  
     axis 0 0 0   XYZ
    dof rx ry rz
    limits (-20.0 45.0)
           (-30.0 30.0)
           (-30.0 30.0)
  end
  begin
     id 17 
     name lclavicle
     direction 0.912857 0.370519 -0.171488  
     length 3.51279  
     axis 0 0 0   XYZ
    dof ry rz
    limits (-20.0 10.0)
           (0.0 20.0)
  end
  begin
     id 18 
     name lhumerus
     direction 1 -4.48962e-011 3.64361e-027   
     length 4.95663   
     axis 180 -30 -90   XYZ
    dof rx ry rz
    limits (-60.0 90.0)
           (-90.0 90.0)
           (-90.0 90.0)
  end
  begin
     id 19
     name lradius
     direction 1 -4.48974e-011 5.97202e-027   
     length 3.38177   
     axis 180 -30 -90   XYZ
    dof rx
    limits (-10.0 170.0)
  end
  begin
     id 20
     name lwrist
     direction 1 -4.4896e-011 9.83288e-027   
     length 1.69088   
     axis -9.31221e-015 90 90   XYZ
    dof ry
    limits (-180.0 0.0)
 end
  begin
     id 21 
     name lhand
     direction 1 -4.4902e-011 1.96551e-026   
     length 0.662909   
     axis -1.25475e-014 90 90   XYZ
    dof rx rz
    limits (-90.0 90.0)
           (-45.0 45.0)
  end
  begin
     id 22 
     name lfingers
     direction 1 -4.48971e-011 3.93277e-026   
     length 0.534454   
     axis -2.50945e-014 90 90   XYZ
    dof rx
    limits (0.0 90.0)
  end
  begin
     id 23
     name lthumb
     direction 0.707107 -6.34933e-011 0.707107   
     length 0.767373   
     axis -90 45 -4.80359e-014   XYZ
    dof rx rz
    limits (-45.0 45.0)
           (-45.0 45.0)
  end
  begin
     id 24 
     name rclavicle
     direction -0.900919 0.395364 -0.178976   
     length 3.40627  
     axis 0 0 0   XYZ 
    dof ry rz
    limits (-10.0 20.0)
           (-20.0 0.0)
  end
  begin
     id 25 
     name rhumerus
     direction -1 -4.48969e-011 1.03875e-027  
     length 5.08365   
     axis 180 30 90   XYZ
    dof rx ry rz
    limits (-90.0 60.0)
           (-90.0 90.0)
           (-90.0 90.0)
  end
  begin
     id 26 
     name rradius
     direction -1 -4.48951e-011 5.02733e-027   
     length 3.35984   
     axis 180 30 90   XYZ
    dof rx
    limits (-10.0 170.0)
  end
  begin
     id 27 
     name rwrist
     direction -1 -4.49011e-011 9.82828e-027   
     length 1.67992   
     axis -9.31221e-015 -90 -90   XYZ
    dof ry
    limits (-180.0 0.0)
  end
  begin
     id 28
     name rhand
     direction -1 -4.48894e-011 1.96774e-026   
     length 0.820764   
     axis -1.25475e-014 -90 -90   XYZ
    dof rx rz
    limits (-90.0 90.0)
           (-45.0 45.0)
  end
  begin
     id 29
     name rfingers
     direction -1 -4.49095e-011 3.92833e-026   
     length 0.661721   
     axis -2.50945e-014 -90 -90   XYZ
    dof rx
    limits (0.0 90.0)
  end
  begin
     id 30
     name rthumb
     direction -0.707107 -6.34881e-011 0.707107   
     length 0.950103   
     axis -90 -45 4.80359e-014   XYZ
    dof rx rz
    limits (-45.0 45.0)
           (-45.0 45.0)
  end
:hierarchy
  begin
    root lhipjoint rhipjoint lowerback
    lhipjoint lfemur
    lfemur ltibia
    ltibia lfoot
    lfoot ltoes
    rhipjoint rfemur
    rfemur rtibia
    rtibia rfoot
    rfoot rtoes
    lowerback upperback
    upperback thorax
    thorax lowerneck lclavicle rclavicle
    lowerneck upperneck
    upperneck head
    lclavicle lhumerus
    lhumerus lradius
    lradius lwrist
    lwrist lhand lthumb
    lhand lfingers
    rclavicle rhumerus
    rhumerus rradius
    rradius rwrist
    rwrist rhand rthumb
    rhand rfingers
  end

#!OML:ASF I:\golf\golf\golf 2\Subject 1\2002-09-07\Subject1.ASF
:FULLY-SPECIFIED
:DEGREES
78
root -5.78482 17.8738 1.69029 -73.8884 86.1438 -91.2727
lowerback 4.61093 1.72018 -1.23788
upperback 3.18832 2.38895 4.96024
thorax 0.441102 1.19736 5.73177
lowerneck -17.3048 -1.64308 2.09852
upperneck 41.1708 1.42626 -6.09197
head 18.4915 0.645285 -2.79114
rclavicle 7.95139e-016 1.27222e-014
rhumerus -4.36899 -3.75036 -101.254
rradius 20.2999
rwrist -32.0046
rhand -14.7366 -6.19274
rfingers 7.12502
rthumb 11.4188 -35.8618
lclavicle 7.95139e-016 1.27222e-014
lhumerus -11.1705 -43.7635 111.119
lradius 27.6995
lwrist 45.9125
lhand -12.5312 67.3794
lfingers 7.12502
lthumb -166.455 83.0812
rfemur -29.1266 0.343639 12.8111
rtibia 28.3639
rfoot -11.8168 -9.21185
rtoes 25.0288
lfemur -30.9605 5.5427 -9.4607
ltibia 30.5766
lfoot -11.5512 0.595885
ltoes -23.6815
79
root -5.7852 17.8737 1.69007 -74.3022 86.0935 -91.6697
lowerback 4.64263 1.70991 -1.1867
upperback 3.18545 2.37854 4.97462
thorax 0.422928 1.19348 5.7171
lowerneck -17.2756 -1.64446 2.08373
upperneck 41.1539 1.42711 -6.08907
head 18.4733 0.643564 -2.78559
rclavicle -1.47101e-014 -5.725e-014
rhumerus -4.40872 -3.64948 -101.268
rradius 20.3346
rwrist -32.0801
rhand -14.7198 -6.16099
rfingers 7.12502
rthumb 11.435 -35.8292
lclavicle -1.47101e-014 -5.725e-014
lhumerus -11.1634 -43.6574 111.1
lradius 27.6647
lwrist 45.8449
lhand -12.5446 67.4432
lfingers 7.12502
lthumb -166.468 83.0165
rfemur -29.1018 0.362127 12.862
rtibia 28.3678
rfoot -11.8956 -9.18321
rtoes 25.4985
lfemur -30.9411 5.53697 -9.39181
ltibia 30.5768
lfoot -11.5927 0.563997
ltoes -23.6907
80
root -5.78414 17.8731 1.68935 -74.9201 86.1173 -92.2969
lowerback 4.62344 1.68156 -1.21623
upperback 3.18381 2.34005 4.99807
thorax 0.43416 1.17363 5.76128
lowerneck -17.2754 -1.64272 2.0094
upperneck 41.1654 1.45821 -6.08072
head 18.4829 0.645856 -2.76228
rclavicle 9.54166e-015 3.26007e-014
rhumerus -4.48092 -3.27624 -101.223
rradius 20.4317
rwrist -32.4073
rhand -14.7631 -6.15622
rfingers 7.12502
rthumb 11.3933 -35.8267
lclavicle 9.54166e-015 3.26007e-014
lhumerus -11.1536 -43.5729 111.111
lradius 27.6434
lwrist 45.7554
lhand -12.4675 67.4045
lfingers 7.12502
lthumb -166.394 83.0602
rfemur -29.0995 0.290479 12.8574
rtibia 28.3737
rfoot -11.81 -9.22146
rtoes 24.833
lfemur -30.968 5.47899 -9.40636
ltibia 30.5785
lfoot -11.6011 0.567333
ltoes -23.8375
81
root -5.78258 17.8726 1.68875 -75.3343 86.1731 -92.7336
lowerback 4.58654 1.67552 -1.23972
upperback 3.1758 2.32958 4.97551
thorax 0.447597 1.16757 5.7524
lowerneck -17.2773 -1.65093 2.01022
upperneck 41.1774 1.44891 -6.08288
head 18.49 0.642699 -2.76576
rclavicle 1.94809e-014 9.54166e-015
rhumerus -4.52256 -3.12241 -101.207
rradius 20.5189
rwrist -32.6677
rhand -14.8855 -6.14586
rfingers 7.12502
rthumb 11.2752 -35.8228
lclavicle 1.94809e-014 9.54166e-015
lhumerus -11.1868 -43.5714 111.12
lradius 27.6355
lwrist 45.7411
lhand -12.4335 67.3717
lfingers 7.12502
lthumb -166.361 83.0952
rfemur -29.1196 0.220874 12.8106
rtibia 28.3839
rfoot -11.6502 -9.25682
rtoes 23.898
lfemur -31.0075 5.46899 -9.47951
ltibia 30.5755
lfoot -11.6001 0.558448
ltoes -23.9908
82
root -5.78267 17.8726 1.68793 -75.413 86.217 -92.8078
lowerback 4.60586 1.68878 -1.23953
upperback 3.16769 2.34613 4.93283
thorax 0.428238 1.17599 5.70558
lowerneck -17.2707 -1.65516 2.05814
upperneck 41.1874 1.42698 -6.08386
head 18.4922 0.642306 -2.77951
rclavicle 3.4191e-014 3.4191e-014
rhumerus -4.52554 -3.16378 -101.206
rradius 20.532
rwrist -32.7705
rhand -14.9568 -6.13286
rfingers 7.12502
rthumb 11.2064 -35.8136
lclavicle 3.4191e-014 3.4191e-014
lhumerus -11.2242 -43.6311 111.118
lradius 27.6217
lwrist 45.7249
lhand -12.462 67.4277
lfingers 7.12502
lthumb -166.388 83.0373
rfemur -29.1217 0.229234 12.7538
rtibia 28.3923
rfoot -11.6855 -9.25106
rtoes 24.2138
lfemur -30.9955 5.46566 -9.53494
ltibia 30.5609
lfoot -11.5884 0.552157
ltoes -23.8565
83
root -5.78276 17.8725 1.68583 -75.8908 86.2259 -93.2591
lowerback 4.64445 1.66866 -1.22791
upperback 3.16603 2.32053 4.93449
thorax 0.408147 1.16378 5.70072
lowerneck -17.2484 -1.63378 2.07211
upperneck 41.1896 1.46556 -6.10216
head 18.4908 0.658115 -2.78282
rclavicle -2.42517e-014 -3.10104e-014
rhumerus -4.55307 -3.10889 -101.205
rradius 20.5419
rwrist -32.9152
rhand -15.0715 -6.10034
rfingers 7.12502
rthumb 11.0958 -35.787
lclavicle -2.42517e-014 -3.10104e-014
lhumerus -11.2102 -43.5439 111.101
lradius 27.5755
lwrist 45.6082
lhand -12.447 67.4039
lfingers 7.12502
lthumb -166.374 83.0621
rfemur -29.0861 0.224038 12.7411
rtibia 28.3896
rfoot -11.7585 -9.27387
rtoes 24.3975
lfemur -30.9598 5.41471 -9.53671
ltibia 30.5443
lfoot -11.559 0.550463
ltoes -23.6538
84
root -5.78077 17.8726 1.68361 -76.457 86.1855 -93.8101
lowerback 4.63795 1.64065 -1.20028
upperback 3.16845 2.28578 4.97691
thorax 0.417461 1.14691 5.73171
lowerneck -17.2101 -1.61461 2.05615
upperneck 41.1593 1.51175 -6.1319
head 18.4663 0.669614 -2.78299
rclavicle 3.89618e-014 5.48646e-014
rhumerus -4.61547 -2.97385 -101.198
rradius 20.6032
rwrist -33.0894
rhand -15.1018 -6.09079
rfingers 7.12502
rthumb 11.0665 -35.779
lclavicle 3.89618e-014 5.48646e-014
lhumerus -11.1762 -43.3113 111.105
lradius 27.5131
lwrist 45.4646
lhand -12.4278 67.2873
lfingers 7.12502
lthumb -166.355 83.1799
rfemur -29.0436 0.189275 12.783
rtibia 28.3714
rfoot -11.8367 -9.19973
rtoes 24.9619
lfemur -30.95 5.39743 -9.49935
ltibia 30.5385
lfoot -11.5506 0.563809
ltoes -23.9247
85
root -5.77865 17.8733 1.68196 -76.1584 86.1807 -93.5107
lowerback 4.61359 1.6455 -1.20669
upperback 3.17186 2.29186 4.9869
thorax 0.433317 1.14958 5.74647
lowerneck -17.1788 -1.61785 2.03655
upperneck 41.1412 1.51311 -6.13224
head 18.4468 0.667098 -2.77787
rclavicle -2.50469e-014 -4.05521e-014
rhumerus -4.63462 -2.98002 -101.199
rradius 20.6121
rwrist -33.08
rhand -14.9697 -6.11521
rfingers 7.12502
rthumb 11.194 -35.7966
lclavicle -2.50469e-014 -4.05521e-014
lhumerus -11.1746 -43.1956 111.119
lradius 27.5031
lwrist 45.4364
lhand -12.4797 67.3551
lfingers 7.12502
lthumb -166.405 83.1088
rfemur -29.0249 0.17381 12.7799
rtibia 28.3456
rfoot -11.867 -9.10182
rtoes 25.5095
lfemur -30.9406 5.39559 -9.50186
ltibia 30.5386
lfoot -11.5707 0.610657
ltoes -24.0437
